<?xml version="1.0" ?><svg viewBox="0 0 64 64" xmlns="http://www.w3.org/2000/svg"><title/><g id="Icons"><path d="M20.05,13.51V48.93A18.316,18.316,0,0,0,9.83,51.48c-.27.17-.54.35-.8.55a28.487,28.487,0,0,0,1.71-13.06l-.9-25.13Z" style="fill:#ffd5c0"/><path d="M39,33.02H37.99v2h-3a1.955,1.955,0,0,0-1.41.59A1.911,1.911,0,0,0,33,37.19a2.071,2.071,0,0,0,2.1,1.83h1.06a1.824,1.824,0,0,1,1.83,1.83,2.168,2.168,0,0,1-2.17,2.17H30.1a3.84,3.84,0,0,1-.96-.14,5.219,5.219,0,0,1-.84-.29c-.04.2-.08.42-.12.65a24.873,24.873,0,0,0-.37,7.32,19.985,19.985,0,0,0-2.77-.92,21.612,21.612,0,0,0-4.99-.71V13.51l14.94-.49a36.149,36.149,0,0,1,3.01,12c.94,1.73,1.89,3.46,2.83,5.2A2,2,0,0,1,39,33.02Z" style="fill:#f9cebb"/><path d="M20.05,48.93V59.01H9.98v4H4.05a13.612,13.612,0,0,1,2.64-8.73,11.506,11.506,0,0,1,2.33-2.24l.01-.01c.26-.2.53-.38.8-.55A18.316,18.316,0,0,1,20.05,48.93Z" style="fill:#febd73"/><path d="M27.98,63.01v-4H20.05V48.93a21.612,21.612,0,0,1,4.99.71,19.985,19.985,0,0,1,2.77.92,17.034,17.034,0,0,1,2.48,1.27,15.546,15.546,0,0,1,2.95,2.27,17.386,17.386,0,0,1,4.62,8.91Z" style="fill:#fab06b"/><rect height="4" style="fill:#fab06b" width="10.07" x="9.98" y="59.01"/><rect height="4" style="fill:#fc8e52" width="7.93" x="20.05" y="59.01"/><path d="M31,25.512a.5.5,0,0,1-.108-.989,9.456,9.456,0,0,0,5.7-3.8.5.5,0,1,1,.818.574,10.459,10.459,0,0,1-6.3,4.2A.5.5,0,0,1,31,25.512Z" style="fill:#383838"/><path d="M43,47.011l3-9-3-2-5,11,1.872,5.606a1.986,1.986,0,0,1,.093.835L39,63.011h8l-.857-8.563a3.992,3.992,0,0,1,.65-2.615L52,44.011,48.232,29.882a2,2,0,0,0-1.038-1.274L44,27.011l2,11Z" style="fill:#f9cebb"/><path d="M57,50.012a1,1,0,0,1-.554-.168l-9-6a1,1,0,0,1,1.11-1.664l9,6A1,1,0,0,1,57,50.012Z" style="fill:#5d99af"/><path d="M60,52.01a.99.99,0,0,1-.92-1.38,1.141,1.141,0,0,1,.21-.33l.15-.12a.721.721,0,0,1,.18-.09.636.636,0,0,1,.18-.06.9.9,0,0,1,.4,0,.636.636,0,0,1,.18.06.721.721,0,0,1,.18.09l.15.12a1.141,1.141,0,0,1,.21.33A.99.99,0,0,1,60,52.01Z" style="fill:#5d99af"/><path d="M63,38.012H54a1,1,0,0,1,0-2h9a1,1,0,0,1,0,2Z" style="fill:#5d99af"/><path d="M52,54.012a2,2,0,1,1,2-2A2,2,0,0,1,52,54.012Zm0-2h0Z" style="fill:#5d99af"/><circle cx="49" cy="23.011" r="2" style="fill:#5d99af"/><path d="M53,30.012a1,1,0,0,1-.448-1.895l8-4a1,1,0,1,1,.894,1.789l-8,4A.991.991,0,0,1,53,30.012Z" style="fill:#5d99af"/><path d="M29.14,42.88a5.219,5.219,0,0,1-.84-.29c-.04.2-.08.42-.12.65l-4.25-6.11a.5.5,0,0,1,.82-.57Z" style="fill:#f2c8b6"/><path d="M19.991,25.761l-4.42,3.56a8.4,8.4,0,0,1-1.94,8.19.6.6,0,0,0-.08.08,5.023,5.023,0,0,1-1.24.9,4.338,4.338,0,0,1-.72.29h-.01a4.38,4.38,0,0,1-.97-.42,5.229,5.229,0,0,1-2.25-2.39l-.75-1.59c-.58-1.24-1.16-2.48-1.74-3.71-1.26-2.69-4.79-16.51,3.2-24.64a17.58,17.58,0,0,1,10.92-4.94Z" style="fill:#484749"/><path d="M33.771,18.351c-2.35,4.18-7.47,5.28-8.38,5.47a16.325,16.325,0,0,1-3.39.32l-2.01,1.62V1.091c.05,0,.1-.01.15-.01a20.063,20.063,0,0,1,3.68.66.292.292,0,0,0,.09.02c4.68,1.29,9.13,4.23,10.59,8.49a7.446,7.446,0,0,1,.27.92A10.66,10.66,0,0,1,33.771,18.351Z" style="fill:#414043"/><path d="M33.771,18.351c-2.35,4.18-7.47,5.28-8.38,5.47a16.325,16.325,0,0,1-3.39.32l-6.43,5.18a8.4,8.4,0,0,1-1.94,8.19.6.6,0,0,0-.08.08,4.913,4.913,0,0,1-5.94.77,4.623,4.623,0,0,1-.55-.35,4.823,4.823,0,0,0,2.25-.52,5.023,5.023,0,0,0,1.24-.9.6.6,0,0,1,.08-.08,8.4,8.4,0,0,0,1.94-8.19L19,23.141a16.325,16.325,0,0,0,3.39-.32c.91-.19,6.03-1.29,8.38-5.47a10.66,10.66,0,0,0,1-7.18,7.446,7.446,0,0,0-.27-.92c-1.18-3.44-4.31-6.02-7.94-7.57a2.437,2.437,0,0,1,.26.06.292.292,0,0,0,.09.02c4.68,1.29,9.13,4.23,10.59,8.49a7.446,7.446,0,0,1,.27.92A10.66,10.66,0,0,1,33.771,18.351Z" style="fill:#3d3d3d"/><path d="M9.071,6.031c-7.99,8.13-4.46,21.95-3.2,24.64.58,1.23,1.16,2.47,1.74,3.71l.75,1.59a5.229,5.229,0,0,0,2.25,2.39,4.38,4.38,0,0,0,.97.42,4.646,4.646,0,0,1-.97.2,4.193,4.193,0,0,1-.5.03,5.226,5.226,0,0,1-.97-.09c-.21-.05-.42-.1-.63-.17a5.1,5.1,0,0,1-.9-.39,5.229,5.229,0,0,1-2.25-2.39q-1.245-2.655-2.49-5.3c-1.26-2.69-4.79-16.51,3.2-24.64a17.935,17.935,0,0,1,12.54-5.01c.02-.01.03-.01.04,0h.3c.34.01.69.03,1.04.05v.02A17.58,17.58,0,0,0,9.071,6.031Z" style="fill:#565556"/><path d="M21,24.016v7H20a2.772,2.772,0,0,1-1-.18,2.968,2.968,0,0,1-2-2.82v-3a1,1,0,0,1,1-1Z" style="fill:#ffe0d2"/><path d="M21,24.016v7a2.772,2.772,0,0,1-1-.18,2.968,2.968,0,0,1-2-2.82v-3a1,1,0,0,1,1-1Z" style="fill:#ffd5c0"/><path d="M21,30.016a1.779,1.779,0,0,1-.639-.112A1.987,1.987,0,0,1,19,28.016v-3h2Z" style="fill:#f9c9b4"/><path d="M21,24.2a28.087,28.087,0,0,0,4.39-.37c.91-.2,6.03-1.3,8.38-5.48a10.172,10.172,0,0,0,1.22-5.33,9.057,9.057,0,0,0-.22-1.85C33.3,4.82,25.34,1.14,18.95,1.02h-.07A17.969,17.969,0,0,0,6.07,6.04a16.629,16.629,0,0,0-3.79,6.14c-2.73,7.62-.39,16.4.59,18.49.83,1.77,1.66,3.53,2.49,5.3a5.226,5.226,0,0,0,5.38,3,4.863,4.863,0,0,0,2.81-1.38l.08-.08A7.968,7.968,0,0,0,15.621,34" style="fill:none;stroke:#383844;stroke-linecap:round;stroke-linejoin:round;stroke-width:2px"/><path d="M21,24.02v7H20a3,3,0,0,1-3-3v-3a1,1,0,0,1,1-1Z" style="fill:none;stroke:#383844;stroke-linecap:round;stroke-linejoin:round;stroke-width:2px"/><path d="M3.1,63.015a13.4,13.4,0,0,1,2.655-8.673c5.6-7.1,19.626-7.05,26.7-.176A17.074,17.074,0,0,1,37.1,63.015h0" style="fill:none;stroke:#383844;stroke-linecap:round;stroke-linejoin:round;stroke-width:2px"/><line style="fill:none;stroke:#383844;stroke-linecap:round;stroke-linejoin:round;stroke-width:2px" x1="9" x2="9" y1="59.015" y2="63.015"/><line style="fill:none;stroke:#383844;stroke-linecap:round;stroke-linejoin:round;stroke-width:2px" x1="27" x2="27" y1="59.015" y2="63.015"/><path d="M18.95,1.02h-.07" style="fill:none;stroke:#383844;stroke-linecap:round;stroke-linejoin:round;stroke-width:2px"/><path d="M34.99,13.02a36.149,36.149,0,0,1,3.01,12c.94,1.73,1.89,3.46,2.83,5.2A2,2,0,0,1,39,33.02H37.99v2h-3a1.955,1.955,0,0,0-1.41.59A1.911,1.911,0,0,0,33,37.19a2.071,2.071,0,0,0,2.1,1.83h1.06a1.824,1.824,0,0,1,1.83,1.83,2.168,2.168,0,0,1-2.17,2.17H30.1a5.34,5.34,0,0,1-3.24-1.34L24.2,39.02a4.014,4.014,0,0,1-1.18-2.83V33.02" style="fill:none;stroke:#383844;stroke-linecap:round;stroke-linejoin:round;stroke-width:2px"/><line style="fill:none;stroke:#383844;stroke-linecap:round;stroke-linejoin:round;stroke-width:2px" x1="35" x2="35" y1="25.015" y2="25.015"/><path d="M31,25.015a9.95,9.95,0,0,0,6-4" style="fill:none;stroke:#383844;stroke-linecap:round;stroke-linejoin:round;stroke-width:2px"/><path d="M47,63.015l-.857-8.563a4,4,0,0,1,.65-2.616L52,44.015,48.232,29.886a2,2,0,0,0-1.038-1.274L44,27.015l2,11" style="fill:none;stroke:#383844;stroke-linecap:round;stroke-linejoin:round;stroke-width:2px"/><path d="M39,63.015l.965-9.56a1.983,1.983,0,0,0-.093-.834L38,47.015l5-11,3,2-3,9" style="fill:none;stroke:#383844;stroke-linecap:round;stroke-linejoin:round;stroke-width:2px"/><line style="fill:none;stroke:#383844;stroke-linecap:round;stroke-linejoin:round;stroke-width:2px" x1="48" x2="57" y1="43.015" y2="49.015"/><line style="fill:none;stroke:#383844;stroke-linecap:round;stroke-linejoin:round;stroke-width:2px" x1="60" x2="60" y1="51.015" y2="51.015"/><line style="fill:none;stroke:#383844;stroke-linecap:round;stroke-linejoin:round;stroke-width:2px" x1="54" x2="63" y1="37.015" y2="37.015"/><circle cx="52" cy="52.015" r="1" style="fill:none;stroke:#383844;stroke-linecap:round;stroke-linejoin:round;stroke-width:2px"/><circle cx="49" cy="23.015" r="2" style="fill:none;stroke:#383844;stroke-linecap:round;stroke-linejoin:round;stroke-width:2px"/><line style="fill:none;stroke:#383844;stroke-linecap:round;stroke-linejoin:round;stroke-width:2px" x1="53" x2="61" y1="29.015" y2="25.015"/><path d="M27.95,51.09A11.383,11.383,0,0,1,27.374,45" style="fill:none;stroke:#383844;stroke-linecap:round;stroke-linejoin:round;stroke-width:2px"/><path d="M10.74,38.97A22.615,22.615,0,0,1,9,51.5" style="fill:none;stroke:#383844;stroke-linecap:round;stroke-linejoin:round;stroke-width:2px"/></g></svg>