<?xml version="1.0" ?><svg viewBox="0 0 64 64" xmlns="http://www.w3.org/2000/svg"><title/><g id="Icons"><polygon points="25 33 23 63 15 63 13.23 36.43 13 33 25 33" style="fill:#ffd5c0"/><polygon points="25 33 23 63 19.15 63 19.06 38.43 19.05 36.43 13.23 36.43 13 33 25 33" style="fill:#f2c8b6"/><path d="M52.99,7.32l-.03.2A9.329,9.329,0,0,1,51.5,11.1a11.27,11.27,0,0,1-8.71,4.87l-.12.01c-.29.02-.64.02-.67.02V13c3.99,0,7.43-2.56,8.04-6Z" style="fill:#fc8e52"/><path d="M62.98,8.45V63H42V16c.03,0,.38,0,.67-.02l.12-.01A11.27,11.27,0,0,0,51.5,11.1a8.745,8.745,0,0,0,.83-1.53,7.592,7.592,0,0,0,.45-1.29,6.461,6.461,0,0,0,.18-.76l.03-.2,9.39,1.02C62.57,8.37,62.77,8.41,62.98,8.45Z" style="fill:#fab06b"/><path d="M31.67,9.57l-7.05.77a12.229,12.229,0,0,0-4.84,1.87c-4.3,2.86-5.4,17.38-5.68,22.79H11c.07-.98.6-21.35,5.78-24.79a12.229,12.229,0,0,1,4.84-1.87l9.39-1.02.03.2a9.033,9.033,0,0,0,.38,1.42c.03.1.07.19.11.29A3.454,3.454,0,0,0,31.67,9.57Z" style="fill:#fedc96"/><path d="M42,16V63H22.16l-.1-26-.01-2H14.1c.28-5.41,1.38-19.93,5.68-22.79a12.229,12.229,0,0,1,4.84-1.87l7.05-.77a9.867,9.867,0,0,0,.89,1.62,11.294,11.294,0,0,0,8.65,4.78l.08.01C41.59,16,41.97,16,42,16Z" style="fill:#febd73"/><path d="M42,4.49V13c-.023,0-.366,0-.571-.02h-.023c-.092-.02-.206-.03-.3-.05a1.013,1.013,0,0,1-.229-.04A6.383,6.383,0,0,1,36.7,10.51c-.148-.17-.274-.36-.411-.53a9.552,9.552,0,0,1-.743-1.25c-.08-.16-.149-.33-.217-.48.114-.47.263-1.03.4-1.65.217-.92.445-1.99.64-3.06a11.685,11.685,0,0,0,2.845.8,11.607,11.607,0,0,0,1.863.15Z" style="fill:#ffd5c0"/><path d="M42,1V4.49h-.93a11.663,11.663,0,0,1-1.86-.15,11.586,11.586,0,0,1-2.84-.8h-.01c.14-.79.28-1.63.4-2.54Z" style="fill:#ffd5c0"/><path d="M36.366,3.54c-.2,1.07-.423,2.14-.64,3.06-.137.62-.286,1.18-.4,1.65-.057-.14-.115-.27-.16-.39-.08-.22-.16-.43-.217-.62-.08-.26-.149-.49-.206-.71-.012-.08-.034-.17-.046-.24-.057-.25-.1-.44-.126-.59.046-.36.1-.73.16-1.09l.24-1.74c.023.01.035.02.058.03A10.037,10.037,0,0,0,36.366,3.54Z" style="fill:#ffe0d2"/><path d="M36.76,1c-.12.91-.26,1.75-.4,2.54a9.558,9.558,0,0,1-1.33-.64l-.06-.03c.09-.63.17-1.25.25-1.87Z" style="fill:#f4cfc3"/><path d="M42,1V4.49h-.93a11.663,11.663,0,0,1-1.86-.15,11.586,11.586,0,0,1-2.84-.8h-.01c.14-.79.28-1.63.4-2.54Z" style="fill:#f2c8b6"/><path d="M48.674,8.25c-.068.15-.137.32-.217.48a9.552,9.552,0,0,1-.743,1.25c-.137.17-.263.36-.411.53a6.383,6.383,0,0,1-4.183,2.38,1.013,1.013,0,0,1-.229.04c-.091.02-.2.03-.3.05h-.023c-.2.02-.548.02-.571.02V4.49h.926a11.607,11.607,0,0,0,1.863-.15,11.685,11.685,0,0,0,2.845-.8c.2,1.07.423,2.14.64,3.06C48.411,7.22,48.56,7.78,48.674,8.25Z" style="fill:#f9cebb"/><path d="M47.64,3.54h-.01a11.71,11.71,0,0,1-2.84.8,11.663,11.663,0,0,1-1.86.15H42V1h5.24C47.36,1.91,47.5,2.75,47.64,3.54Z" style="fill:#ffd5c0"/><path d="M49.429,5.7c-.023.15-.069.34-.126.59-.012.07-.034.16-.046.24-.057.22-.126.45-.206.71-.057.19-.137.4-.217.62-.045.12-.1.25-.16.39-.114-.47-.263-1.03-.4-1.65-.217-.92-.445-1.99-.64-3.06A9.907,9.907,0,0,0,48.96,2.9c.023,0,.046-.02.069-.03.08.6.171,1.2.251,1.8C49.337,5.01,49.383,5.36,49.429,5.7Z" style="fill:#f2c8b6"/><path d="M42,4.49V13c-.023,0-.366,0-.571-.02h-.023c-.092-.02-.206-.03-.3-.05a1.013,1.013,0,0,1-.229-.04A6.383,6.383,0,0,1,36.7,10.51c-.148-.17-.274-.36-.411-.53a9.552,9.552,0,0,1-.743-1.25c-.08-.16-.149-.33-.217-.48.114-.47.263-1.03.4-1.65.217-.92.445-1.99.64-3.06a11.685,11.685,0,0,0,2.845.8,11.607,11.607,0,0,0,1.863.15Z" style="fill:#ffd5c0"/><path d="M36.366,3.54c-.2,1.07-.423,2.14-.64,3.06-.137.62-.286,1.18-.4,1.65-.057-.14-.115-.27-.16-.39-.08-.22-.16-.43-.217-.62-.08-.26-.149-.49-.206-.71-.012-.08-.034-.17-.046-.24-.057-.25-.1-.44-.126-.59.046-.36.1-.73.16-1.09l.24-1.74c.023.01.035.02.058.03A10.037,10.037,0,0,0,36.366,3.54Z" style="fill:#ffe0d2"/><path d="M48.674,8.25c-.068.15-.137.32-.217.48a9.552,9.552,0,0,1-.743,1.25c-.137.17-.263.36-.411.53a6.383,6.383,0,0,1-4.183,2.38,1.013,1.013,0,0,1-.229.04c-.091.02-.2.03-.3.05h-.023c-.2.02-.548.02-.571.02V4.49h.926a11.607,11.607,0,0,0,1.863-.15,11.685,11.685,0,0,0,2.845-.8c.2,1.07.423,2.14.64,3.06C48.411,7.22,48.56,7.78,48.674,8.25Z" style="fill:#f9cebb"/><path d="M49.429,5.7c-.023.15-.069.34-.126.59-.012.07-.034.16-.046.24-.057.22-.126.45-.206.71-.057.19-.137.4-.217.62-.045.12-.1.25-.16.39-.114-.47-.263-1.03-.4-1.65-.217-.92-.445-1.99-.64-3.06A9.907,9.907,0,0,0,48.96,2.9c.023,0,.046-.02.069-.03.08.6.171,1.2.251,1.8C49.337,5.01,49.383,5.36,49.429,5.7Z" style="fill:#f2c8b6"/><path d="M49.03,2.87a11.787,11.787,0,0,1-1.39.67c-.14-.79-.28-1.63-.4-2.54h1.54C48.86,1.62,48.94,2.24,49.03,2.87Z" style="fill:#e5b6a8"/><path d="M47.64,3.54h-.01a11.71,11.71,0,0,1-2.84.8,11.663,11.663,0,0,1-1.86.15H42V1h5.24C47.36,1.91,47.5,2.75,47.64,3.54Z" style="fill:#eabdad"/><path d="M48.457,8.73a9.552,9.552,0,0,1-.743,1.25c-.137.17-.263.36-.411.53a6.383,6.383,0,0,1-4.183,2.38,1.013,1.013,0,0,1-.229.04c-.091.02-.2.03-.3.05A8.306,8.306,0,0,0,49,9.444L48.674,8.25C48.606,8.4,48.537,8.57,48.457,8.73Z" style="fill:#f9cebb"/><path d="M49.28,4.67c.057.34.1.69.149,1.03-.023.15-.069.34-.126.59-.012.07-.034.16-.046.24-.057.22-.126.45-.206.71-.057.19-.137.4-.217.62-.045.12-.1.25-.16.39L49,9.444A6.429,6.429,0,0,0,50,7,15.694,15.694,0,0,1,49.28,4.67Z" style="fill:#f9cebb"/><path d="M35.166,7.86c-.08-.22-.16-.43-.217-.62-.08-.26-.149-.49-.206-.71-.012-.08-.034-.17-.046-.24-.057-.25-.1-.44-.126-.59.046-.36.1-.73.16-1.09A15.724,15.724,0,0,1,34,7a6.423,6.423,0,0,0,1.047,2.508l.279-1.258C35.269,8.11,35.211,7.98,35.166,7.86Z" style="fill:#ffe0d2"/><path d="M40.88,12.89A6.383,6.383,0,0,1,36.7,10.51c-.148-.17-.274-.36-.411-.53a9.552,9.552,0,0,1-.743-1.25c-.08-.16-.149-.33-.217-.48l-.279,1.258a8.314,8.314,0,0,0,6.359,3.472c-.092-.02-.206-.03-.3-.05A1.013,1.013,0,0,1,40.88,12.89Z" style="fill:#ffd5c0"/><path d="M34.82,9.23l-.81.09-2.34.25c-.05-.11-.1-.23-.14-.34a2.488,2.488,0,0,1-.11-.29,9.033,9.033,0,0,1-.38-1.42l-.03-.2L33.96,7A6.128,6.128,0,0,0,34.82,9.23Z" style="fill:#f9ba85"/><path d="M62.98,8.45v3.04a12.319,12.319,0,0,0-3.6-1.15l-7.05-.77c.079-.175.148-.354.213-.532.012-.033.027-.064.037-.1a5.527,5.527,0,0,0,.2-.66,6.461,6.461,0,0,0,.18-.76l.03-.2,9.39,1.02C62.57,8.37,62.77,8.41,62.98,8.45Z" style="fill:#fc8e52"/><path d="M49.18,9.23l.81.09,2.34.25c.05-.11.1-.23.14-.34a2.488,2.488,0,0,0,.11-.29,9.033,9.033,0,0,0,.38-1.42l.03-.2L50.04,7A6.128,6.128,0,0,1,49.18,9.23Z" style="fill:#ed753a"/><path d="M42,13v3c-.03,0-.41,0-.71-.02l-.08-.01a11.294,11.294,0,0,1-8.65-4.78c-.1-.14-.19-.29-.28-.44s-.17-.29-.25-.44a5.6,5.6,0,0,1-.36-.74l2.34-.25.81-.09a7.786,7.786,0,0,0,3.87,3.15A9.06,9.06,0,0,0,42,13Z" style="fill:#fab06b"/><path d="M17,44a1,1,0,0,1-.833-.445L12.592,38.19l-4.812,1.6a2,2,0,0,1-1.741-.233L.445,35.832a1,1,0,0,1,1.11-1.664L7.148,37.9l4.811-1.6a2,2,0,0,1,2.3.787l3.577,5.365A1,1,0,0,1,17,44Z" style="fill:#e77973"/><path d="M1,56a1,1,0,0,1-.448-1.9l7.355-3.677a2,2,0,0,1,2.309.375l2.628,2.628,3.323-4.986a1,1,0,0,1,1.664,1.11L14.509,54.54a2,2,0,0,1-3.079.3L8.8,52.217,1.447,55.9A1,1,0,0,1,1,56Z" style="fill:#e77973"/><path d="M7.073,47.846a2.014,2.014,0,0,1-1.111-.336L.445,43.832a1,1,0,0,1,1.11-1.664l5.517,3.678,3.15-1.575a2.011,2.011,0,0,1,1.379-.152l3.642.911a1,1,0,0,1-.486,1.94l-3.641-.91-3.15,1.575A2,2,0,0,1,7.073,47.846Z" style="fill:#e77973"/><path d="M25,40a1,1,0,0,1-.707-1.707l2.586-2.586a3.073,3.073,0,0,1,4.243,0l1.6,1.6L35.1,32.553a1,1,0,0,1,1.79.894l-2.38,4.759a2,2,0,0,1-3.2.519l-1.6-1.6a1.021,1.021,0,0,0-1.414,0l-2.586,2.586A1,1,0,0,1,25,40Z" style="fill:#e77973"/><polygon points="62.98 35 62.98 54.23 55 53 55.16 52.06 55.64 49.16 58 35 62.98 35" style="fill:#f2c8b6"/><path d="M62.98,52.92V63H49l-7-2.68-6.15-2.35-1.05.27a10.117,10.117,0,0,1-5.94-.31l-6.71-2.48a1.611,1.611,0,0,1-.95-2.11l.08-.19a1.555,1.555,0,0,1,.68-.79,1.524,1.524,0,0,1,1.15-.17h.01a.292.292,0,0,1,.09.02l5.52,1.64-8.6-2.61a1.6,1.6,0,0,1-.94-.78,1.618,1.618,0,0,1-.11-1.26l.02-.05a1.575,1.575,0,0,1,1.49-1.1,1.841,1.841,0,0,1,.41.05.638.638,0,0,1-.14-.08l-.02-.01a1.482,1.482,0,0,1-.69-.77,1.567,1.567,0,0,1-.05-1.13l.02-.07a1.631,1.631,0,0,1,1.51-1.1,1.523,1.523,0,0,1,.42.06c.05.01.1.03.15.04a1.539,1.539,0,0,1-.95-.77,1.592,1.592,0,0,1,1.85-2.31l.41.13,5.07,1.58.21.07,1.09.33.11-.42v-.01l.35-1.42a1.584,1.584,0,0,1,2.09-1.12l4.65,1.77a4.073,4.073,0,0,1,2.43,2.55L40.93,49l.62.2.45.09,13.16,2.77,3.83.8Z" style="fill:#f9cebb"/><path d="M20.98,45.09c.01,0,.01.01.02.01a.037.037,0,0,1-.03-.01Z" style="fill:#f2c8b6"/><path d="M22.2,42.04c-.05-.01-.09-.03-.14-.04.01,0,.01-.01.02-.01A.308.308,0,0,0,22.2,42.04Z" style="fill:#f2c8b6"/><path d="M62.98,60v3H49l-7-2.68-6.15-2.35-1.05.27a10.117,10.117,0,0,1-5.94-.31l-6.71-2.48a1.611,1.611,0,0,1-.95-2.11l.08-.19a1.555,1.555,0,0,1,.68-.79.663.663,0,0,0,.19.09l6.71,2.48a10.117,10.117,0,0,0,5.94.31l1.05-.27L42,57.32,49,60Z" style="fill:#f2c8b6"/><polyline points="28.579 43.67 28.789 43.74 34.999 46" style="fill:none"/><path d="M35.47,46.17a.5.5,0,0,1-.64.3l-11-4a.5.5,0,0,1-.32-.38l5.07,1.58.21.07,1.089.33.11-.42,5.181,1.88A.5.5,0,0,1,35.47,46.17Z" style="fill:#eabdad"/><line style="fill:none" x1="32.999" x2="21.629" y1="49" y2="44.94"/><path d="M33.47,49.17A.5.5,0,0,1,33,49.5a.5.5,0,0,1-.169-.03L20.809,45.18a1.486,1.486,0,0,1,.82-.24,1.512,1.512,0,0,1,.42.06c.051.01.1.03.151.04a1.541,1.541,0,0,1-.951-.77L33.17,48.53A.5.5,0,0,1,33.47,49.17Z" style="fill:#eabdad"/><polyline points="31.999 52 20.859 48.02 20.839 48.01" style="fill:none"/><path d="M32.47,52.17A.5.5,0,0,1,32,52.5a.5.5,0,0,1-.169-.03L19.91,48.21a1.539,1.539,0,0,1,1.139-.09l.1.03a1.082,1.082,0,0,1-.291-.13l-.019-.01a1.482,1.482,0,0,1-.69-.77l12.02,4.29A.5.5,0,0,1,32.47,52.17Z" style="fill:#eabdad"/><polyline points="28.999 54 23.119 52.19 23.109 52.19" style="fill:none"/><path d="M29.48,54.15A.514.514,0,0,1,29,54.5a.772.772,0,0,1-.149-.02l-6.89-2.12a1.547,1.547,0,0,1,1.159-.17.3.3,0,0,1,.091.02l5.52,1.64-8.6-2.61a1.6,1.6,0,0,1-.94-.78l9.961,3.06A.507.507,0,0,1,29.48,54.15Z" style="fill:#eabdad"/><path d="M33.3,42.124l-.578,1.362-1.793-.371a1.478,1.478,0,0,1,.136-.939,1.463,1.463,0,0,1,.594-.606Z" style="fill:#ffe0d2"/><path d="M24.074,42.915,23.5,44.277l-1.792-.37a1.449,1.449,0,0,1,.729-1.546Z" style="fill:#ffe0d2"/><path d="M23.035,46.1l-.578,1.363L20.664,47.1a1.447,1.447,0,0,1,.73-1.545Z" style="fill:#ffe0d2"/><path d="M22.145,49.245l-.578,1.362-1.793-.371a1.447,1.447,0,0,1,.73-1.545Z" style="fill:#ffe0d2"/><path d="M24.123,53.349l-.578,1.363-1.793-.371a1.448,1.448,0,0,1,.73-1.546Z" style="fill:#ffe0d2"/><polygon points="62.98 49.92 62.98 52.92 58.99 52.86 55.16 52.06 55.64 49.16 58.99 49.86 62.98 49.92" style="fill:#eabdad"/><path d="M50,7l-.97-6" style="fill:none;stroke:#383844;stroke-linecap:round;stroke-linejoin:round;stroke-width:2px"/><line style="fill:none;stroke:#383844;stroke-linecap:round;stroke-linejoin:round;stroke-width:2px" x1="13.286" x2="15" y1="39" y2="63"/><line style="fill:none;stroke:#383844;stroke-linecap:round;stroke-linejoin:round;stroke-width:2px" x1="23.71" x2="23.71" y1="52.36" y2="52.33"/><line style="fill:none;stroke:#383844;stroke-linecap:round;stroke-linejoin:round;stroke-width:2px" x1="23.93" x2="23.93" y1="49" y2="48.99"/><line style="fill:none;stroke:#383844;stroke-linecap:round;stroke-linejoin:round;stroke-width:2px" x1="23.47" x2="23" y1="55.94" y2="63"/><path d="M1,35l5.593,3.729a1,1,0,0,0,.871.116l4.811-1.6a1,1,0,0,1,1.149.394L17,43" style="fill:none;stroke:#383844;stroke-linecap:round;stroke-linejoin:round;stroke-width:2px"/><path d="M36,33l-2.38,4.759a1,1,0,0,1-1.6.26l-1.6-1.6a2,2,0,0,0-2.828,0L25,39" style="fill:none;stroke:#383844;stroke-linecap:round;stroke-linejoin:round;stroke-width:2px"/><path d="M1,55l7.355-3.678a1,1,0,0,1,1.155.188l2.627,2.627a1,1,0,0,0,1.54-.152L17,49" style="fill:none;stroke:#383844;stroke-linecap:round;stroke-linejoin:round;stroke-width:2px"/><path d="M1,43l5.517,3.678a1,1,0,0,0,1,.062l3.15-1.575a1,1,0,0,1,.69-.075L15,46" style="fill:none;stroke:#383844;stroke-linecap:round;stroke-linejoin:round;stroke-width:2px"/><path d="M28.732,53.853l-8.6-2.613A1.609,1.609,0,0,1,19.082,49.2l.014-.042a1.581,1.581,0,0,1,1.959-1.029l8.694,2.641" style="fill:none;stroke:#383844;stroke-linecap:round;stroke-linejoin:round;stroke-width:2px"/><path d="M29.749,50.765l-8.6-2.613A1.608,1.608,0,0,1,20.1,46.107l.023-.071A1.581,1.581,0,0,1,22.051,45l8.8,2.483" style="fill:none;stroke:#383844;stroke-linecap:round;stroke-linejoin:round;stroke-width:2px"/><path d="M34.833,45.618,23.1,41.961a1.581,1.581,0,0,0-1.969,1.026h0A1.608,1.608,0,0,0,22.2,45.041l8.647,2.438" style="fill:none;stroke:#383844;stroke-linecap:round;stroke-linejoin:round;stroke-width:2px"/><path d="M29.881,44.073l.456-1.855A1.581,1.581,0,0,1,32.431,41.1l4.652,1.766a4.1,4.1,0,0,1,2.43,2.553l1.42,4.313L59,53" style="fill:none;stroke:#383844;stroke-linecap:round;stroke-linejoin:round;stroke-width:2px"/><path d="M55,63,35.849,57.971l-1.05.265a10.046,10.046,0,0,1-5.937-.311l-6.716-2.471a1.616,1.616,0,0,1-.945-2.11l.077-.2a1.59,1.59,0,0,1,1.932-.939l5.522,1.643" style="fill:none;stroke:#383844;stroke-linecap:round;stroke-linejoin:round;stroke-width:2px"/><path d="M59,25v8a2.006,2.006,0,0,0,2,2h2" style="fill:none;stroke:#383844;stroke-linecap:round;stroke-linejoin:round;stroke-width:2px"/><path d="M63,8.46l-.62-.12L50,7A8.333,8.333,0,0,1,34,7l.98-6" style="fill:none;stroke:#383844;stroke-linecap:round;stroke-linejoin:round;stroke-width:2px"/><path d="M25,25v8a2.006,2.006,0,0,1-2,2H11c.07-.98.6-21.35,5.78-24.79a12.229,12.229,0,0,1,4.84-1.87L30,7.43" style="fill:none;stroke:#383844;stroke-linecap:round;stroke-linejoin:round;stroke-width:2px"/><line style="fill:none;stroke:#383844;stroke-linecap:round;stroke-linejoin:round;stroke-width:2px" x1="59" x2="55.14" y1="33" y2="52.3"/></g></svg>