<?xml version="1.0" ?><svg viewBox="0 0 64 64" xmlns="http://www.w3.org/2000/svg"><title/><g id="Icons"><path d="M42.99,23.32l-.03.2A9.329,9.329,0,0,1,41.5,27.1a11.27,11.27,0,0,1-8.71,4.87l-.12.01c-.29.02-.64.02-.67.02V29c3.99,0,7.43-2.56,8.04-6Z" style="fill:#fc8e52"/><path d="M54.6,51V62.8l2,.05V63H32V32c.03,0,.38,0,.67-.02l.12-.01A11.27,11.27,0,0,0,41.5,27.1a9.329,9.329,0,0,0,1.46-3.58l.03-.2,9.39,1.02a12.229,12.229,0,0,1,4.84,1.87C62.4,29.65,62.93,50.02,63,51Z" style="fill:#fab06b"/><path d="M21.67,25.57l-7.05.77a12.229,12.229,0,0,0-4.84,1.87C5.48,31.07,4.38,45.59,4.1,51H1c.07-.98.6-21.35,5.78-24.79a12.229,12.229,0,0,1,4.84-1.87l9.39-1.02.03.2a9.033,9.033,0,0,0,.38,1.42c.03.1.07.19.11.29A3.454,3.454,0,0,0,21.67,25.57Z" style="fill:#fedc96"/><path d="M32,32V63H12.16l-.1-10-.01-2H4.1c.28-5.41,1.38-19.93,5.68-22.79a12.229,12.229,0,0,1,4.84-1.87l7.05-.77a9.867,9.867,0,0,0,.89,1.62,11.294,11.294,0,0,0,8.65,4.78l.08.01C31.59,32,31.97,32,32,32Z" style="fill:#febd73"/><path d="M32,20.49V29c-.023,0-.366,0-.571-.02h-.023c-.092-.02-.206-.03-.3-.05a1.013,1.013,0,0,1-.229-.04A6.383,6.383,0,0,1,26.7,26.51c-.148-.17-.274-.36-.411-.53a9.552,9.552,0,0,1-.743-1.25c-.08-.16-.149-.33-.217-.48.114-.47.263-1.03.4-1.65.217-.92.445-1.99.64-3.06a11.685,11.685,0,0,0,2.845.8,11.607,11.607,0,0,0,1.863.15Z" style="fill:#ffd5c0"/><path d="M32,17v3.49h-.93a12.43,12.43,0,0,1-4.7-.95h-.01c.14-.79.28-1.63.4-2.54Z" style="fill:#ffd5c0"/><path d="M26.366,19.54c-.2,1.07-.423,2.14-.64,3.06-.137.62-.286,1.18-.4,1.65-.057-.14-.115-.27-.16-.39-.08-.22-.16-.43-.217-.62-.08-.26-.149-.49-.206-.71-.012-.08-.034-.17-.046-.24-.057-.25-.1-.44-.126-.59.046-.36.1-.73.16-1.09l.24-1.74c.023.01.035.02.058.03A10.037,10.037,0,0,0,26.366,19.54Z" style="fill:#ffe0d2"/><path d="M26.76,17c-.12.91-.26,1.75-.4,2.54a9.558,9.558,0,0,1-1.33-.64l-.06-.03c.09-.63.17-1.25.25-1.87Z" style="fill:#f4cfc3"/><path d="M32,17v3.49h-.93a12.43,12.43,0,0,1-4.7-.95h-.01c.14-.79.28-1.63.4-2.54Z" style="fill:#f2c8b6"/><path d="M38.674,24.25c-.068.15-.137.32-.217.48a9.552,9.552,0,0,1-.743,1.25c-.137.17-.263.36-.411.53a6.383,6.383,0,0,1-4.183,2.38,1.013,1.013,0,0,1-.229.04c-.091.02-.2.03-.3.05h-.023c-.2.02-.548.02-.571.02V20.49h.926a11.607,11.607,0,0,0,1.863-.15,11.685,11.685,0,0,0,2.845-.8c.2,1.07.423,2.14.64,3.06C38.411,23.22,38.56,23.78,38.674,24.25Z" style="fill:#f9cebb"/><path d="M37.64,19.54h-.01a12.43,12.43,0,0,1-4.7.95H32V17h5.24C37.36,17.91,37.5,18.75,37.64,19.54Z" style="fill:#ffd5c0"/><path d="M39.429,21.7c-.023.15-.069.34-.126.59-.012.07-.034.16-.046.24-.057.22-.126.45-.206.71-.057.19-.137.4-.217.62-.045.12-.1.25-.16.39-.114-.47-.263-1.03-.4-1.65-.217-.92-.445-1.99-.64-3.06a9.907,9.907,0,0,0,1.326-.64c.023,0,.046-.02.069-.03.08.6.171,1.2.251,1.8C39.337,21.01,39.383,21.36,39.429,21.7Z" style="fill:#f2c8b6"/><path d="M32,20.49V29c-.023,0-.366,0-.571-.02h-.023c-.092-.02-.206-.03-.3-.05a1.013,1.013,0,0,1-.229-.04A6.383,6.383,0,0,1,26.7,26.51c-.148-.17-.274-.36-.411-.53a9.552,9.552,0,0,1-.743-1.25c-.08-.16-.149-.33-.217-.48.114-.47.263-1.03.4-1.65.217-.92.445-1.99.64-3.06a11.685,11.685,0,0,0,2.845.8,11.607,11.607,0,0,0,1.863.15Z" style="fill:#ffd5c0"/><path d="M26.366,19.54c-.2,1.07-.423,2.14-.64,3.06-.137.62-.286,1.18-.4,1.65-.057-.14-.115-.27-.16-.39-.08-.22-.16-.43-.217-.62-.08-.26-.149-.49-.206-.71-.012-.08-.034-.17-.046-.24-.057-.25-.1-.44-.126-.59.046-.36.1-.73.16-1.09l.24-1.74c.023.01.035.02.058.03A10.037,10.037,0,0,0,26.366,19.54Z" style="fill:#ffe0d2"/><path d="M38.674,24.25c-.068.15-.137.32-.217.48a9.552,9.552,0,0,1-.743,1.25c-.137.17-.263.36-.411.53a6.383,6.383,0,0,1-4.183,2.38,1.013,1.013,0,0,1-.229.04c-.091.02-.2.03-.3.05h-.023c-.2.02-.548.02-.571.02V20.49h.926a11.607,11.607,0,0,0,1.863-.15,11.685,11.685,0,0,0,2.845-.8c.2,1.07.423,2.14.64,3.06C38.411,23.22,38.56,23.78,38.674,24.25Z" style="fill:#f9cebb"/><path d="M39.429,21.7c-.023.15-.069.34-.126.59-.012.07-.034.16-.046.24-.057.22-.126.45-.206.71-.057.19-.137.4-.217.62-.045.12-.1.25-.16.39-.114-.47-.263-1.03-.4-1.65-.217-.92-.445-1.99-.64-3.06a9.907,9.907,0,0,0,1.326-.64c.023,0,.046-.02.069-.03.08.6.171,1.2.251,1.8C39.337,21.01,39.383,21.36,39.429,21.7Z" style="fill:#f2c8b6"/><path d="M39.03,18.87a11.787,11.787,0,0,1-1.39.67c-.14-.79-.28-1.63-.4-2.54h1.54C38.86,17.62,38.94,18.24,39.03,18.87Z" style="fill:#e5b6a8"/><path d="M37.64,19.54h-.01a12.43,12.43,0,0,1-4.7.95H32V17h5.24C37.36,17.91,37.5,18.75,37.64,19.54Z" style="fill:#eabdad"/><path d="M38.457,24.73a9.552,9.552,0,0,1-.743,1.25c-.137.17-.263.36-.411.53a6.383,6.383,0,0,1-4.183,2.38,1.013,1.013,0,0,1-.229.04c-.091.02-.2.03-.3.05A8.306,8.306,0,0,0,39,25.444l-.327-1.194C38.606,24.4,38.537,24.57,38.457,24.73Z" style="fill:#f9cebb"/><path d="M39.28,20.67c.057.34.1.69.149,1.03-.023.15-.069.34-.126.59-.012.07-.034.16-.046.24-.057.22-.126.45-.206.71-.057.19-.137.4-.217.62-.045.12-.1.25-.16.39L39,25.444A6.429,6.429,0,0,0,40,23,15.694,15.694,0,0,1,39.28,20.67Z" style="fill:#f9cebb"/><path d="M25.166,23.86c-.08-.22-.16-.43-.217-.62-.08-.26-.149-.49-.206-.71-.012-.08-.034-.17-.046-.24-.057-.25-.1-.44-.126-.59.046-.36.1-.73.16-1.09A15.724,15.724,0,0,1,24,23a6.423,6.423,0,0,0,1.047,2.508l.279-1.258C25.269,24.11,25.211,23.98,25.166,23.86Z" style="fill:#ffe0d2"/><path d="M30.88,28.89A6.383,6.383,0,0,1,26.7,26.51c-.148-.17-.274-.36-.411-.53a9.552,9.552,0,0,1-.743-1.25c-.08-.16-.149-.33-.217-.48l-.279,1.258a8.314,8.314,0,0,0,6.359,3.472c-.092-.02-.206-.03-.3-.05A1.013,1.013,0,0,1,30.88,28.89Z" style="fill:#ffd5c0"/><path d="M24.82,25.23l-.81.09-2.34.25c-.05-.11-.1-.23-.14-.34a2.488,2.488,0,0,1-.11-.29,9.033,9.033,0,0,1-.38-1.42l-.03-.2L23.96,23A6.128,6.128,0,0,0,24.82,25.23Z" style="fill:#f9ba85"/><path d="M42.33,25.57l7.05.77a12.229,12.229,0,0,1,4.84,1.87c4.3,2.86,5.4,17.38,5.68,22.79H63c-.07-.98-.6-21.35-5.78-24.79a12.229,12.229,0,0,0-4.84-1.87l-9.39-1.02-.03.2a9.033,9.033,0,0,1-.38,1.42c-.03.1-.07.19-.11.29A3.454,3.454,0,0,1,42.33,25.57Z" style="fill:#fc8e52"/><path d="M39.18,25.23l.81.09,2.34.25c.05-.11.1-.23.14-.34a2.488,2.488,0,0,0,.11-.29,9.033,9.033,0,0,0,.38-1.42l.03-.2L40.04,23A6.128,6.128,0,0,1,39.18,25.23Z" style="fill:#ed753a"/><path d="M32,29v3c-.03,0-.41,0-.71-.02l-.08-.01a11.294,11.294,0,0,1-8.65-4.78c-.1-.14-.19-.29-.28-.44s-.17-.29-.25-.44a5.6,5.6,0,0,1-.36-.74l2.34-.25.81-.09a7.786,7.786,0,0,0,3.87,3.15A9.06,9.06,0,0,0,32,29Z" style="fill:#fab06b"/><path d="M32,1V18.78H31a14,14,0,0,1-14-14V1Z" style="fill:#ffd5c0"/><path d="M32,18.74v.04H31a14,14,0,0,1-14-14V1h2V4.78a13.991,13.991,0,0,0,7.98,12.64A13.916,13.916,0,0,0,32,18.74Z" style="fill:#ffe0d2"/><path d="M47,1V4.78a13.944,13.944,0,0,1-4.04,9.84,14.724,14.724,0,0,1-2.24,1.84,13.5,13.5,0,0,1-1.7.96A13.983,13.983,0,0,1,33,18.78H32V1Z" style="fill:#f9cebb"/><path d="M47,1V4.78a13.944,13.944,0,0,1-4.04,9.84,13.626,13.626,0,0,1-2.24,1.84,13.5,13.5,0,0,1-1.7.96A13.983,13.983,0,0,1,33,18.78H32v-.04a13.916,13.916,0,0,0,5.02-1.32A13.991,13.991,0,0,0,45,4.78V1Z" style="fill:#f2c8b6"/><path d="M32,21.783v7c-.02,0-.39,0-.61-.02-.12-.01-.24-.02-.35-.04a.986.986,0,0,1-.24-.03,7.7,7.7,0,0,1-4.51-1.96c-.16-.14-.3-.29-.44-.43a7.982,7.982,0,0,1-.8-1.03,4.231,4.231,0,0,1-.24-.4c.13-.38.28-.84.43-1.35.24-.76.48-1.64.69-2.52a16.155,16.155,0,0,0,3.07.66,16.647,16.647,0,0,0,2,.12Z" style="fill:#ffd5c0"/><path d="M32,18.783v3H31a16.647,16.647,0,0,1-2-.12A16.155,16.155,0,0,1,25.93,21c.21-.9.41-1.89.58-2.97a12.924,12.924,0,0,0,2.49.6,13.168,13.168,0,0,0,2,.15Z" style="fill:#ffd5c0"/><path d="M25.93,21c-.21.88-.45,1.76-.69,2.52-.15.51-.3.97-.43,1.35-.06-.11-.12-.22-.17-.32a5.45,5.45,0,0,1-.23-.51c-.09-.21-.16-.4-.22-.58-.02-.07-.04-.14-.06-.2-.06-.2-.1-.36-.13-.48.14-.78.29-1.55.43-2.33A15.816,15.816,0,0,0,25.93,21Z" style="fill:#ffe0d2"/><path d="M26.51,18.033c-.17,1.08-.37,2.07-.58,2.97a15.816,15.816,0,0,1-1.5-.55c.18-1.01.36-2.02.55-3.03a10.254,10.254,0,0,0,.96.41A4.3,4.3,0,0,0,26.51,18.033Z" style="fill:#f4cfc3"/><path d="M32,18.783v3H31a16.647,16.647,0,0,1-2-.12A16.155,16.155,0,0,1,25.93,21c.21-.9.41-1.89.58-2.97a12.924,12.924,0,0,0,2.49.6,13.168,13.168,0,0,0,2,.15Z" style="fill:#f2c8b6"/><path d="M32,21.783v7c.02,0,.39,0,.61-.02.12-.01.24-.02.35-.04a.986.986,0,0,0,.24-.03,7.7,7.7,0,0,0,4.51-1.96c.16-.14.3-.29.44-.43a7.982,7.982,0,0,0,.8-1.03,4.231,4.231,0,0,0,.24-.4c-.13-.38-.28-.84-.43-1.35-.24-.76-.48-1.64-.69-2.52a16.155,16.155,0,0,1-3.07.66,16.647,16.647,0,0,1-2,.12Z" style="fill:#f9cebb"/><path d="M32,18.783v3h1a16.647,16.647,0,0,0,2-.12A16.155,16.155,0,0,0,38.07,21c-.21-.9-.41-1.89-.58-2.97a12.924,12.924,0,0,1-2.49.6,13.168,13.168,0,0,1-2,.15Z" style="fill:#ffd5c0"/><path d="M38.07,21c.21.88.45,1.76.69,2.52.15.51.3.97.43,1.35.06-.11.12-.22.17-.32a5.45,5.45,0,0,0,.23-.51c.09-.21.16-.4.22-.58.02-.07.04-.14.06-.2.06-.2.1-.36.13-.48-.14-.78-.29-1.55-.43-2.33A15.816,15.816,0,0,1,38.07,21Z" style="fill:#f2c8b6"/><path d="M32,21.783v7c-.02,0-.39,0-.61-.02-.12-.01-.24-.02-.35-.04a.986.986,0,0,1-.24-.03,7.7,7.7,0,0,1-4.51-1.96c-.16-.14-.3-.29-.44-.43a7.982,7.982,0,0,1-.8-1.03,4.231,4.231,0,0,1-.24-.4c.13-.38.28-.84.43-1.35.24-.76.48-1.64.69-2.52a16.155,16.155,0,0,0,3.07.66,16.647,16.647,0,0,0,2,.12Z" style="fill:#ffd5c0"/><path d="M25.93,21c-.21.88-.45,1.76-.69,2.52-.15.51-.3.97-.43,1.35-.06-.11-.12-.22-.17-.32a5.45,5.45,0,0,1-.23-.51c-.09-.21-.16-.4-.22-.58-.02-.07-.04-.14-.06-.2-.06-.2-.1-.36-.13-.48.14-.78.29-1.55.43-2.33A15.816,15.816,0,0,0,25.93,21Z" style="fill:#ffe0d2"/><path d="M32,21.783v7c.02,0,.39,0,.61-.02.12-.01.24-.02.35-.04a.986.986,0,0,0,.24-.03,7.7,7.7,0,0,0,4.51-1.96c.16-.14.3-.29.44-.43a7.982,7.982,0,0,0,.8-1.03,4.231,4.231,0,0,0,.24-.4c-.13-.38-.28-.84-.43-1.35-.24-.76-.48-1.64-.69-2.52a16.155,16.155,0,0,1-3.07.66,16.647,16.647,0,0,1-2,.12Z" style="fill:#f9cebb"/><path d="M38.07,21c.21.88.45,1.76.69,2.52.15.51.3.97.43,1.35.06-.11.12-.22.17-.32a5.45,5.45,0,0,0,.23-.51c.09-.21.16-.4.22-.58.02-.07.04-.14.06-.2.06-.2.1-.36.13-.48-.14-.78-.29-1.55-.43-2.33A15.816,15.816,0,0,1,38.07,21Z" style="fill:#f2c8b6"/><path d="M37.49,18.033c.17,1.08.37,2.07.58,2.97a15.816,15.816,0,0,0,1.5-.55c-.18-1.01-.36-2.02-.55-3.03a10.254,10.254,0,0,1-.96.41A4.3,4.3,0,0,1,37.49,18.033Z" style="fill:#e5b6a8"/><path d="M32,18.783v3h1a16.647,16.647,0,0,0,2-.12A16.155,16.155,0,0,0,38.07,21c-.21-.9-.41-1.89-.58-2.97a12.924,12.924,0,0,1-2.49.6,13.168,13.168,0,0,1-2,.15Z" style="fill:#eabdad"/><path d="M32,10.5v1.21l-1.65,1.64a.483.483,0,0,1-.7,0L28,11.71l-1.65,1.64a.495.495,0,0,1-.7-.7l2-2a.483.483,0,0,1,.7,0L30,12.29l1.65-1.64A.469.469,0,0,1,32,10.5Z" style="fill:#484749"/><path d="M38.35,13.35a.483.483,0,0,1-.7,0L36,11.71l-1.65,1.64a.483.483,0,0,1-.7,0L32,11.71V10.5a.469.469,0,0,1,.35.15L34,12.29l1.65-1.64a.483.483,0,0,1,.7,0l2,2A.483.483,0,0,1,38.35,13.35Z" style="fill:#414043"/><path d="M34.73,5.56,33.87,1H31.63l-.86,4.56A1.179,1.179,0,0,0,31.87,7h1.76A1.179,1.179,0,0,0,34.73,5.56Z" style="fill:#eabdad"/><path d="M32,1V7h-.88a1.179,1.179,0,0,1-1.1-1.44L30.88,1Z" style="fill:#f4b89a"/><path d="M32.88,7H32V1h1.12l.86,4.56A1.179,1.179,0,0,1,32.88,7Z" style="fill:#efb297"/><path d="M31.75,7h-.63a1.179,1.179,0,0,1-1.1-1.44L30.88,1h.63l-.86,4.56A1.179,1.179,0,0,0,31.75,7Z" style="fill:#f7c4ad"/><path d="M32.247,7h.63a1.179,1.179,0,0,0,1.1-1.44L33.117,1h-.63l.86,4.56A1.179,1.179,0,0,1,32.247,7Z" style="fill:#efae8e"/><path d="M32,6.5V7h-.25a1.085,1.085,0,0,1-.94-.55,1.059,1.059,0,0,0,.31.05Z" style="fill:#efb297"/><path d="M31.75,7h-.63a1.179,1.179,0,0,1-1.1-1.44,1.212,1.212,0,0,0,.79.89A1.085,1.085,0,0,0,31.75,7Z" style="fill:#f4b89a"/><path d="M32.88,7h-.63a1.085,1.085,0,0,0,.94-.55,1.212,1.212,0,0,0,.79-.89A1.179,1.179,0,0,1,32.88,7Z" style="fill:#eaa688"/><path d="M33.19,6.45a1.085,1.085,0,0,1-.94.55H32V6.5h.88A1.059,1.059,0,0,0,33.19,6.45Z" style="fill:#efae8e"/><polygon points="56.6 54.6 56.6 62.85 54.6 62.8 54.6 52.6 56.6 54.6" style="fill:#eabdad"/><polygon points="56.6 51 56.6 54.6 54.6 52.6 54.6 51 56.6 51" style="fill:#f2cabb"/><polygon points="63 61 63 63 62 63 56.6 62.85 56.6 54.6 63 61" style="fill:#f2cabb"/><polygon points="63 51 63 61 56.6 54.6 56.6 51 63 51" style="fill:#f9cebb"/><path d="M40,49l-.16.49L39,52l-9.31-5.59a1.012,1.012,0,0,1-.44-1.17l.31-.91a1.224,1.224,0,0,1,.51-.68.948.948,0,0,1,1-.01l8.28,4.97Z" style="fill:#ffd5c0"/><path d="M41.08,45.81l-.14.41-.77,2.29L40,49l-.65-.39-8.28-4.97-.38-.23a1.045,1.045,0,0,1-.49-.85,1.248,1.248,0,0,1,.05-.32l.36-1.08a.919.919,0,0,1,.39-.51.992.992,0,0,1,1.05-.04l7.67,4.41Z" style="fill:#ffd5c0"/><path d="M45,44l-.53.25-2.78,1.28-.61.28-1.36-.79-7.67-4.41-.34-.2a.968.968,0,0,1-.49-.79.913.913,0,0,1,.04-.4l.36-1.09a.975.975,0,0,1,.48-.57,1.028,1.028,0,0,1,.95,0l7.04,3.8Z" style="fill:#ffd5c0"/><path d="M62.79,63H51l-5-4-7-2-6.41-5.49a1,1,0,0,1-.24-1.21l.2-.41a1,1,0,0,1,1.34-.44L39,52l.29-2.84.12-1.1.26-2.55.05-.49.06-.6.26-2.56.05-.5.04-.36.08-.19.41-.94a1.006,1.006,0,0,1,1.27-.54l5.08,1.91a3.98,3.98,0,0,1,2.5,2.88L51,51l6,6,4.73,4.9Z" style="fill:#ffd5c0"/><path d="M53.76,63H51l-5-4-7-2-6.41-5.49a1,1,0,0,1-.24-1.21l.2-.41a1,1,0,0,1,1.34-.44l1.31.66-.09.19a1,1,0,0,0,.24,1.21L41.76,57l7,2Z" style="fill:#f9cebb"/><rect height="12" style="fill:#ffd5c0" width="12" x="3" y="51"/><polygon points="15 51 15 63 13 63 13 53 3 53 3 51 15 51" style="fill:#f2c8b6"/><path d="M27,36a1,1,0,0,1-.833-.445L22.845,30.57l-2.157,2.156a2,2,0,0,1-3.2-.52l-2.38-4.759a1,1,0,0,1,1.79-.894l2.379,4.759,2.157-2.157a1.958,1.958,0,0,1,1.611-.575,1.991,1.991,0,0,1,1.467.88l3.323,4.985A1,1,0,0,1,27,36Z" style="fill:#e77973"/><path d="M37,36a1,1,0,0,1-.831-1.555l3.323-4.985a1.991,1.991,0,0,1,1.467-.88,1.964,1.964,0,0,1,1.611.575l2.157,2.157,2.379-4.759a1,1,0,0,1,1.79.894l-2.38,4.76a2,2,0,0,1-3.2.52l-2.157-2.158-3.323,4.986A1,1,0,0,1,37,36Z" style="fill:#e77973"/><path d="M13,48a1,1,0,0,1-.556-1.832l5.319-3.545a2.007,2.007,0,0,1,2.522.249l2.559,2.559,3.323-4.986a1,1,0,0,1,1.664,1.11L24.509,46.54a1.991,1.991,0,0,1-1.467.88,1.969,1.969,0,0,1-1.611-.575l-2.558-2.558-5.318,3.545A1,1,0,0,1,13,48Z" style="fill:#e77973"/><path d="M17.2,39.784a2,2,0,0,1-1.414-.587l-3.49-3.49a1,1,0,0,1,1.414-1.414l3.49,3.49,3.025-1.512a1.992,1.992,0,0,1,1.38-.151l3.64.91a1,1,0,1,1-.484,1.94l-3.642-.91-3.024,1.512A2,2,0,0,1,17.2,39.784Z" style="fill:#e77973"/><path d="M42.7,40.286,42.044,41.6l-1.286-.56a1.106,1.106,0,0,1,.824-1.286Z" style="fill:#ffe0d2"/><path d="M33.8,38.769l-.659,1.319-1.286-.561a1.1,1.1,0,0,1,.824-1.285Z" style="fill:#ffe0d2"/><path d="M32.879,41.8l-.659,1.319-1.286-.561a1.1,1.1,0,0,1,.824-1.285Z" style="fill:#ffe0d2"/><path d="M31.89,44.868l-.659,1.319-1.286-.561a1.1,1.1,0,0,1,.824-1.285Z" style="fill:#ffe0d2"/><path d="M34.692,50.242l-.659,1.318L32.747,51a1.106,1.106,0,0,1,.824-1.286Z" style="fill:#ffe0d2"/><path d="M40.57,49.34a.507.507,0,0,1-.43.24.484.484,0,0,1-.26-.07l-.04-.02-.55-.33-9.22-5.51a.948.948,0,0,1,1-.01l-.38-.23a1.045,1.045,0,0,1-.49-.85l9.21,5.5.76.45.23.14A.511.511,0,0,1,40.57,49.34Z" style="fill:#eabdad"/><path d="M41.76,46.11a.505.505,0,0,1-.43.26.553.553,0,0,1-.25-.07l-.14-.08-1.27-.71L31,40.65a.992.992,0,0,1,1.05-.04l-.34-.2a.968.968,0,0,1-.49-.79l8.56,4.8,1.79,1.01a.4.4,0,0,1,.12.1A.482.482,0,0,1,41.76,46.11Z" style="fill:#eabdad"/><path d="M45.58,44.27a.526.526,0,0,1-.45.27.465.465,0,0,1-.23-.06l-.43-.23-4.43-2.39-7.94-4.3a1.028,1.028,0,0,1,.95,0l7.04,3.8.04-.36.08-.19,5.16,2.79A.49.49,0,0,1,45.58,44.27Z" style="fill:#eabdad"/><path d="M40,23l-.97-5.36" style="fill:none;stroke:#383844;stroke-linecap:round;stroke-linejoin:round;stroke-width:2px"/><path d="M24.98,17.64Q24.49,20.321,24,23" style="fill:none;stroke:#383844;stroke-linecap:round;stroke-linejoin:round;stroke-width:2px"/><path d="M17,1V5A14,14,0,0,0,31,19h2A14,14,0,0,0,47,5V1" style="fill:none;stroke:#383844;stroke-linecap:round;stroke-linejoin:round;stroke-width:2px"/><path d="M23.96,23c.61,3.44,4.05,6,8.04,6s7.43-2.56,8.04-6l12.34,1.34a12.229,12.229,0,0,1,4.84,1.87c4.27,2.84,5.38,17.18,5.68,22.68a2,2,0,0,1-2,2.11H57" style="fill:none;stroke:#383844;stroke-linecap:round;stroke-linejoin:round;stroke-width:2px"/><path d="M15,51H3a2,2,0,0,1-1.9-2.11c.3-5.5,1.41-19.84,5.68-22.68a12.229,12.229,0,0,1,4.84-1.87L20,23.43" style="fill:none;stroke:#383844;stroke-linecap:round;stroke-linejoin:round;stroke-width:2px"/><path d="M39,52l-9.312-5.587a1,1,0,0,1-.435-1.173l.3-.913a1.033,1.033,0,0,1,1.511-.686L40,49" style="fill:none;stroke:#383844;stroke-linecap:round;stroke-linejoin:round;stroke-width:2px"/><path d="M40,49l-9.312-5.587a1,1,0,0,1-.434-1.174l.359-1.077a1,1,0,0,1,1.448-.551l9.019,5.2" style="fill:none;stroke:#383844;stroke-linecap:round;stroke-linejoin:round;stroke-width:2px"/><path d="M45,44,33.047,37.564a1,1,0,0,0-1.423.564l-.366,1.1a1,1,0,0,0,.45,1.183l9.376,5.4" style="fill:none;stroke:#383844;stroke-linecap:round;stroke-linejoin:round;stroke-width:2px"/><path d="M40.13,41l.491-1.129a1,1,0,0,1,1.268-.538l5.081,1.906a4,4,0,0,1,2.5,2.877L51,51l6,6" style="fill:none;stroke:#383844;stroke-linecap:round;stroke-linejoin:round;stroke-width:2px"/><path d="M51,63l-5-4-7-2-6.407-5.492a1,1,0,0,1-.244-1.206l.2-.408a1,1,0,0,1,1.341-.447L39,52" style="fill:none;stroke:#383844;stroke-linecap:round;stroke-linejoin:round;stroke-width:2px"/><polyline points="63 55 63 60 61 63" style="fill:none;stroke:#383844;stroke-linecap:round;stroke-linejoin:round;stroke-width:2px"/><line style="fill:none;stroke:#383844;stroke-linecap:round;stroke-linejoin:round;stroke-width:2px" x1="3" x2="3" y1="55" y2="63"/><line style="fill:none;stroke:#383844;stroke-linecap:round;stroke-linejoin:round;stroke-width:2px" x1="15" x2="15" y1="51" y2="63"/><path d="M16,27l2.38,4.759a1,1,0,0,0,1.6.26l2.156-2.156a1,1,0,0,1,1.54.152L27,35" style="fill:none;stroke:#383844;stroke-linecap:round;stroke-linejoin:round;stroke-width:2px"/><path d="M48,27l-2.38,4.759a1,1,0,0,1-1.6.26l-2.156-2.156a1,1,0,0,0-1.54.152L37,35" style="fill:none;stroke:#383844;stroke-linecap:round;stroke-linejoin:round;stroke-width:2px"/><path d="M13,47l5.318-3.545a1,1,0,0,1,1.262.125l2.557,2.557a1,1,0,0,0,1.54-.152L27,41" style="fill:none;stroke:#383844;stroke-linecap:round;stroke-linejoin:round;stroke-width:2px"/><path d="M13,35l3.49,3.49a1,1,0,0,0,1.155.188l3.024-1.513a1,1,0,0,1,.69-.075L25,38" style="fill:none;stroke:#383844;stroke-linecap:round;stroke-linejoin:round;stroke-width:2px"/><polyline points="26 13 28 11 30 13 32 11 34 13 36 11 38 13" style="fill:none;stroke:#383844;stroke-linecap:round;stroke-linejoin:round;stroke-width:2px"/><path d="M30.877,1l-.855,4.565A1.181,1.181,0,0,0,31.124,7h1.752a1.181,1.181,0,0,0,1.1-1.435L33.123,1" style="fill:none;stroke:#383844;stroke-linecap:round;stroke-linejoin:round;stroke-width:2px"/></g></svg>