<?xml version="1.0" ?><svg viewBox="0 0 64 64" xmlns="http://www.w3.org/2000/svg"><title/><g id="Icons"><path d="M63,5V7H37a8.014,8.014,0,0,0-5.66,2.34A8.122,8.122,0,0,0,29.25,13H29a7.989,7.989,0,0,1,8-8Z" style="fill:#a2adb3"/><path d="M63,7v6H29.25a8.122,8.122,0,0,1,2.09-3.66A8.014,8.014,0,0,1,37,7Z" style="fill:#76838b"/><rect height="4" style="fill:#a2adb3" width="10" x="31" y="13"/><path d="M31,32a1,1,0,0,1-1-1V22a1,1,0,0,1,2,0v9A1,1,0,0,1,31,32Z" style="fill:#4889a0"/><path d="M35,32a1,1,0,0,1-1-1V21a1,1,0,0,1,2,0V31A1,1,0,0,1,35,32Z" style="fill:#4889a0"/><path d="M39,29a1,1,0,0,1-1-1V21a1,1,0,0,1,2,0v7A1,1,0,0,1,39,29Z" style="fill:#4889a0"/><path d="M39,32a1.029,1.029,0,0,1-.71-.29,1.576,1.576,0,0,1-.12-.15.757.757,0,0,1-.09-.18.636.636,0,0,1-.06-.18A1.355,1.355,0,0,1,38,31a.838.838,0,0,1,.08-.38,1.155,1.155,0,0,1,.21-.33,1.047,1.047,0,0,1,1.42,0,1.155,1.155,0,0,1,.21.33A1,1,0,0,1,40,31a.99.99,0,0,1-1,1Z" style="fill:#4889a0"/><path d="M54.189,35.01a1,1,0,0,1-.86-1.509A4.905,4.905,0,0,0,54,31a5,5,0,0,0-10,0,1,1,0,0,1-2,0,7,7,0,0,1,14,0,6.922,6.922,0,0,1-.948,3.518A1,1,0,0,1,54.189,35.01Z" style="fill:#a4c9d6"/><path d="M57.55,43.5a1,1,0,0,1-.707-1.708A3.92,3.92,0,0,0,58,39a3.97,3.97,0,0,0-3.844-3.991A.867.867,0,0,1,54.031,35a4.041,4.041,0,0,0-3.7,2.39,1,1,0,0,1-1.826-.814A6.024,6.024,0,0,1,54,33c.084,0,.18,0,.27.012a5.981,5.981,0,0,1,3.987,10.2A1,1,0,0,1,57.55,43.5Z" style="fill:#ccdee6"/><path d="M54,52a3.019,3.019,0,0,1-.529-.036A1,1,0,0,1,53.83,50,1.174,1.174,0,0,0,54,50a4,4,0,0,0,2.4-7.2A3.922,3.922,0,0,0,54,42a1,1,0,0,1,0-2,5.906,5.906,0,0,1,3.6,1.2A6,6,0,0,1,54,52Z" style="fill:#a4c9d6"/><path d="M48,60a1,1,0,0,1,0-2,5.006,5.006,0,0,0,5-5,4.911,4.911,0,0,0-.289-1.678,1,1,0,0,1,1.879-.684A6.874,6.874,0,0,1,55,53,7.008,7.008,0,0,1,48,60Z" style="fill:#ccdee6"/><circle cx="22" cy="26" r="2" style="fill:#a4c9d6"/><circle cx="48" cy="20" r="1" style="fill:#a4c9d6"/><circle cx="60" cy="23" r="2" style="fill:#a4c9d6"/><path d="M19,14.78a.78.78,0,0,1-.78-.78V13a.78.78,0,1,1,1.56,0v1A.78.78,0,0,1,19,14.78Z" style="fill:#b4f5f0"/><path d="M17,16.78H16a.78.78,0,0,1,0-1.56h1a.78.78,0,1,1,0,1.56Z" style="fill:#b4f5f0"/><path d="M19,19.78a.78.78,0,0,1-.78-.78V18a.78.78,0,0,1,1.56,0v1A.78.78,0,0,1,19,19.78Z" style="fill:#b4f5f0"/><path d="M22,16.78H21a.78.78,0,0,1,0-1.56h1a.78.78,0,1,1,0,1.56Z" style="fill:#b4f5f0"/><path d="M60,54.78a.78.78,0,0,1-.78-.78V53a.78.78,0,0,1,1.56,0v1A.78.78,0,0,1,60,54.78Z" style="fill:#b4f5f0"/><path d="M58,56.78H57a.78.78,0,0,1,0-1.56h1a.78.78,0,0,1,0,1.56Z" style="fill:#b4f5f0"/><path d="M60,59.78a.78.78,0,0,1-.78-.78V58a.78.78,0,0,1,1.56,0v1A.78.78,0,0,1,60,59.78Z" style="fill:#b4f5f0"/><path d="M63,56.78H62a.78.78,0,0,1,0-1.56h1a.78.78,0,0,1,0,1.56Z" style="fill:#b4f5f0"/><path d="M8,43c10.164,0,18.624-5.111,28.528-5.1A4.638,4.638,0,0,0,37,36V35L15,37,7,41H1v2.256C3.655,43.782,6.223,43,8,43Z" style="fill:#f4cfc3"/><path d="M45,45H43a2.006,2.006,0,0,0,2-2,1.961,1.961,0,0,0-.59-1.42A1.987,1.987,0,0,0,43,41H27l7-1a3.185,3.185,0,0,0,2.528-2.1C26.624,37.889,18.164,43,8,43c-1.777,0-4.345.782-7,.256v8.7c3.805-.27,8.245-1.877,11-.959,9.985,4.539,20.792,4.951,30.929,3.493a1.935,1.935,0,0,0-.519-.913A1.987,1.987,0,0,0,41,53h2a2.006,2.006,0,0,0,2-2,1.961,1.961,0,0,0-.59-1.42A1.987,1.987,0,0,0,43,49h2a2.015,2.015,0,0,0,2-2A2,2,0,0,0,45,45Z" style="fill:#f2c6b5"/><path d="M12,51c-2.755-.918-7.195.689-11,.959V55H7l10,2H41a1.981,1.981,0,0,0,1.929-2.507C32.792,55.951,21.985,55.539,12,51Z" style="fill:#f2bda8"/><path d="M1,41H7l8-4,22-2v1c0,1.657-1.343,4-3,4l-7,1" style="fill:none;stroke:#4889a0;stroke-linecap:round;stroke-linejoin:round;stroke-width:2px"/><path d="M27,53H41a2,2,0,0,1,2,2h0a2,2,0,0,1-2,2H17L7,55H1" style="fill:none;stroke:#4889a0;stroke-linecap:round;stroke-linejoin:round;stroke-width:2px"/><path d="M35,53h8a2,2,0,0,0,2-2h0a2,2,0,0,0-2-2H27" style="fill:none;stroke:#4889a0;stroke-linecap:round;stroke-linejoin:round;stroke-width:2px"/><path d="M35,45h8a2,2,0,0,0,2-2h0a2,2,0,0,0-2-2H27" style="fill:none;stroke:#4889a0;stroke-linecap:round;stroke-linejoin:round;stroke-width:2px"/><path d="M33,49H45a2,2,0,0,0,2-2h0a2,2,0,0,0-2-2H27" style="fill:none;stroke:#4889a0;stroke-linecap:round;stroke-linejoin:round;stroke-width:2px"/><path d="M63,13H29a8,8,0,0,1,8-8H63" style="fill:none;stroke:#4889a0;stroke-linecap:round;stroke-linejoin:round;stroke-width:2px"/><rect height="4" style="fill:none;stroke:#4889a0;stroke-linecap:round;stroke-linejoin:round;stroke-width:2px" width="10" x="31" y="13"/><line style="fill:none;stroke:#4889a0;stroke-linecap:round;stroke-linejoin:round;stroke-width:2px" x1="31" x2="31" y1="22" y2="31"/><line style="fill:none;stroke:#4889a0;stroke-linecap:round;stroke-linejoin:round;stroke-width:2px" x1="35" x2="35" y1="21" y2="31"/><line style="fill:none;stroke:#4889a0;stroke-linecap:round;stroke-linejoin:round;stroke-width:2px" x1="39" x2="39" y1="21" y2="28"/><line style="fill:none;stroke:#4889a0;stroke-linecap:round;stroke-linejoin:round;stroke-width:2px" x1="39" x2="39" y1="31" y2="31"/><path d="M54.19,34.01A5.894,5.894,0,0,0,55,31a6,6,0,0,0-12,0" style="fill:none;stroke:#4889a0;stroke-linecap:round;stroke-linejoin:round;stroke-width:2px"/><path d="M53.65,50.98A5.874,5.874,0,0,1,54,53a6,6,0,0,1-6,6" style="fill:none;stroke:#4889a0;stroke-linecap:round;stroke-linejoin:round;stroke-width:2px"/><path d="M49.42,36.98A5.023,5.023,0,0,1,54,34a1.21,1.21,0,0,1,.19.01A4.989,4.989,0,0,1,59,39a4.936,4.936,0,0,1-1.45,3.5" style="fill:none;stroke:#4889a0;stroke-linecap:round;stroke-linejoin:round;stroke-width:2px"/><path d="M54,41a4.941,4.941,0,0,1,3,1,5,5,0,0,1-3,9,2,2,0,0,1-.35-.02" style="fill:none;stroke:#4889a0;stroke-linecap:round;stroke-linejoin:round;stroke-width:2px"/><circle cx="22" cy="26" r="2" style="fill:none;stroke:#4889a0;stroke-linecap:round;stroke-linejoin:round;stroke-width:2px"/><circle cx="48" cy="20" r="1" style="fill:none;stroke:#4889a0;stroke-linecap:round;stroke-linejoin:round;stroke-width:2px"/><circle cx="60" cy="23" r="2" style="fill:none;stroke:#4889a0;stroke-linecap:round;stroke-linejoin:round;stroke-width:2px"/><line style="fill:none;stroke:#4889a0;stroke-linecap:round;stroke-linejoin:round;stroke-width:2px" x1="19" x2="19" y1="14" y2="13"/><line style="fill:none;stroke:#4889a0;stroke-linecap:round;stroke-linejoin:round;stroke-width:2px" x1="17" x2="16" y1="16" y2="16"/><line style="fill:none;stroke:#4889a0;stroke-linecap:round;stroke-linejoin:round;stroke-width:2px" x1="19" x2="19" y1="18" y2="19"/><line style="fill:none;stroke:#4889a0;stroke-linecap:round;stroke-linejoin:round;stroke-width:2px" x1="21" x2="22" y1="16" y2="16"/><line style="fill:none;stroke:#4889a0;stroke-linecap:round;stroke-linejoin:round;stroke-width:2px" x1="60" x2="60" y1="54" y2="53"/><line style="fill:none;stroke:#4889a0;stroke-linecap:round;stroke-linejoin:round;stroke-width:2px" x1="58" x2="57" y1="56" y2="56"/><line style="fill:none;stroke:#4889a0;stroke-linecap:round;stroke-linejoin:round;stroke-width:2px" x1="60" x2="60" y1="58" y2="59"/><line style="fill:none;stroke:#4889a0;stroke-linecap:round;stroke-linejoin:round;stroke-width:2px" x1="62" x2="63" y1="56" y2="56"/></g></svg>