<?xml version="1.0" ?><svg viewBox="0 0 64 64" xmlns="http://www.w3.org/2000/svg"><title/><g id="Icons"><polygon points="1 21 7 21 7 63 32 63 32 1 1 21" style="fill:#5d99af"/><polygon points="32 1 32 63 57 63 57 21 63 21 32 1" style="fill:#4889a0"/><path d="M41,57a17.388,17.388,0,0,1-.63-2.33c-.07-.6-.15-1.2-.22-1.8h0q-.137-1.146-.278-2.292A10,10,0,0,0,46.99,41.31v-.022a11.85,11.85,0,0,0,.184-1.231h.3a2.277,2.277,0,0,0,.842-.155A2.557,2.557,0,0,0,50,37.469V34.88a.855.855,0,0,0-.842-.862H47.235V29.63A17.083,17.083,0,0,0,49,31V25.978a11.184,11.184,0,0,0-.176-1.968,11.372,11.372,0,0,0-1.006-3.071c-.089-.19-.194-.38-.3-.57-.212-.379-.442-.742-.689-1.1s-.52-.7-.811-1.035-.6-.647-.918-.958a15.706,15.706,0,0,0-8.063-3.971,14.743,14.743,0,0,0-5.749-.051C24.305,14.362,19,19.634,19,25.978V31c.565-.1,1.16-.209,1.765-.335v3.353H18.842A.855.855,0,0,0,18,34.88v2.589A2.557,2.557,0,0,0,19.684,39.9a2.277,2.277,0,0,0,.842.155h.3a11.926,11.926,0,0,0,.184,1.235v.018a10,10,0,0,0,7.117,9.269q-.14,1.146-.278,2.292h0l-.21,1.739A17.451,17.451,0,0,1,27,57q-7.005,3-14,6H55Q48,60,41,57Z" style="fill:#3a85a0"/><path d="M32,54.49V63c-.02,0-.32,0-.5-.02h-.02c-.08-.02-.18-.03-.26-.05a.787.787,0,0,1-.2-.04,5.4,5.4,0,0,1-3.66-2.38c-.13-.17-.24-.36-.36-.53a9.928,9.928,0,0,1-.65-1.25c-.07-.16-.13-.33-.19-.48.1-.47.23-1.03.35-1.65.19-.92.39-1.99.56-3.06a9.268,9.268,0,0,0,2.49.8,8.906,8.906,0,0,0,1.63.15Z" style="fill:#ffd5c0"/><path d="M32,50.84v3.648h-.812a9.035,9.035,0,0,1-1.625-.146,9.5,9.5,0,0,1-2.495-.8c.171-1.094.333-2.3.471-3.611a7.784,7.784,0,0,0,2.024.729,7.209,7.209,0,0,0,1.625.182Z" style="fill:#ffd5c0"/><path d="M27.07,53.54c-.17,1.07-.37,2.14-.56,3.06-.12.62-.25,1.18-.35,1.65-.05-.14-.1-.27-.14-.39-.07-.22-.14-.43-.19-.62-.07-.26-.13-.49-.18-.71-.01-.08-.03-.17-.04-.24-.05-.25-.09-.44-.11-.59.04-.36.09-.73.14-1.09l.21-1.74c.02.01.03.02.05.03A8.361,8.361,0,0,0,27.07,53.54Z" style="fill:#ffe0d2"/><path d="M27.539,49.929c-.138,1.313-.3,2.517-.471,3.611a10.7,10.7,0,0,1-1.219-.669c.147-1.228.293-2.456.447-3.684a7.336,7.336,0,0,0,.78.5A2.834,2.834,0,0,0,27.539,49.929Z" style="fill:#f4cfc3"/><path d="M32,50.84v3.648h-.812a9.035,9.035,0,0,1-1.625-.146,9.5,9.5,0,0,1-2.495-.8c.171-1.094.333-2.3.471-3.611a7.784,7.784,0,0,0,2.024.729,7.209,7.209,0,0,0,1.625.182Z" style="fill:#f2c8b6"/><path d="M37.84,58.25c-.06.15-.12.32-.19.48A9.928,9.928,0,0,1,37,59.98c-.12.17-.23.36-.36.53a5.4,5.4,0,0,1-3.66,2.38.787.787,0,0,1-.2.04c-.08.02-.18.03-.26.05H32.5c-.18.02-.48.02-.5.02V54.49h.81a8.906,8.906,0,0,0,1.63-.15,9.268,9.268,0,0,0,2.49-.8c.17,1.07.37,2.14.56,3.06C37.61,57.22,37.74,57.78,37.84,58.25Z" style="fill:#f9cebb"/><path d="M32,50.84v3.648h.812a9.035,9.035,0,0,0,1.625-.146,9.5,9.5,0,0,0,2.5-.8c-.171-1.094-.333-2.3-.471-3.611a7.784,7.784,0,0,1-2.024.729,7.209,7.209,0,0,1-1.625.182Z" style="fill:#ffd5c0"/><path d="M38.5,55.7c-.02.15-.06.34-.11.59-.01.07-.03.16-.04.24-.05.22-.11.45-.18.71-.05.19-.12.4-.19.62-.04.12-.09.25-.14.39-.1-.47-.23-1.03-.35-1.65-.19-.92-.39-1.99-.56-3.06a8.259,8.259,0,0,0,1.16-.64c.02,0,.04-.02.06-.03.07.6.15,1.2.22,1.8C38.42,55.01,38.46,55.36,38.5,55.7Z" style="fill:#f2c8b6"/><path d="M32,54.49V63c-.02,0-.32,0-.5-.02h-.02c-.08-.02-.18-.03-.26-.05a.787.787,0,0,1-.2-.04,5.4,5.4,0,0,1-3.66-2.38c-.13-.17-.24-.36-.36-.53a9.928,9.928,0,0,1-.65-1.25c-.07-.16-.13-.33-.19-.48.1-.47.23-1.03.35-1.65.19-.92.39-1.99.56-3.06a9.268,9.268,0,0,0,2.49.8,8.906,8.906,0,0,0,1.63.15Z" style="fill:#ffd5c0"/><path d="M27.07,53.54c-.17,1.07-.37,2.14-.56,3.06-.12.62-.25,1.18-.35,1.65-.05-.14-.1-.27-.14-.39-.07-.22-.14-.43-.19-.62-.07-.26-.13-.49-.18-.71-.01-.08-.03-.17-.04-.24-.05-.25-.09-.44-.11-.59.04-.36.09-.73.14-1.09l.21-1.74c.02.01.03.02.05.03A8.361,8.361,0,0,0,27.07,53.54Z" style="fill:#ffe0d2"/><path d="M37.84,58.25c-.06.15-.12.32-.19.48A9.928,9.928,0,0,1,37,59.98c-.12.17-.23.36-.36.53a5.4,5.4,0,0,1-3.66,2.38.787.787,0,0,1-.2.04c-.08.02-.18.03-.26.05H32.5c-.18.02-.48.02-.5.02V54.49h.81a8.906,8.906,0,0,0,1.63-.15,9.268,9.268,0,0,0,2.49-.8c.17,1.07.37,2.14.56,3.06C37.61,57.22,37.74,57.78,37.84,58.25Z" style="fill:#f9cebb"/><path d="M38.5,55.7c-.02.15-.06.34-.11.59-.01.07-.03.16-.04.24-.05.22-.11.45-.18.71-.05.19-.12.4-.19.62-.04.12-.09.25-.14.39-.1-.47-.23-1.03-.35-1.65-.19-.92-.39-1.99-.56-3.06a8.259,8.259,0,0,0,1.16-.64c.02,0,.04-.02.06-.03.07.6.15,1.2.22,1.8C38.42,55.01,38.46,55.36,38.5,55.7Z" style="fill:#f2c8b6"/><path d="M36.461,49.929c.138,1.313.3,2.517.471,3.611a10.7,10.7,0,0,0,1.219-.669c-.147-1.228-.293-2.456-.447-3.684a7.336,7.336,0,0,1-.78.5A2.834,2.834,0,0,1,36.461,49.929Z" style="fill:#e5b6a8"/><path d="M32,50.84v3.648h.812a9.035,9.035,0,0,0,1.625-.146,9.5,9.5,0,0,0,2.5-.8c-.171-1.094-.333-2.3-.471-3.611a7.784,7.784,0,0,1-2.024.729,7.209,7.209,0,0,1-1.625.182Z" style="fill:#eabdad"/><path d="M37.65,58.73A9.928,9.928,0,0,1,37,59.98c-.12.17-.23.36-.36.53a5.4,5.4,0,0,1-3.66,2.38.787.787,0,0,1-.2.04c-.08.02-.18.03-.26.05a7.11,7.11,0,0,0,5.606-3.536L37.84,58.25C37.78,58.4,37.72,58.57,37.65,58.73Z" style="fill:#f9cebb"/><path d="M38.37,54.67c.05.34.09.69.13,1.03-.02.15-.06.34-.11.59-.01.07-.03.16-.04.24-.05.22-.11.45-.18.71-.05.19-.12.4-.19.62-.04.12-.09.25-.14.39l.286,1.194A6.969,6.969,0,0,0,39,57,17.388,17.388,0,0,1,38.37,54.67Z" style="fill:#f9cebb"/><path d="M26.02,57.86c-.07-.22-.14-.43-.19-.62-.07-.26-.13-.49-.18-.71-.01-.08-.03-.17-.04-.24-.05-.25-.09-.44-.11-.59.04-.36.09-.73.14-1.09A17.451,17.451,0,0,1,25,57a6.958,6.958,0,0,0,.916,2.508l.244-1.258C26.11,58.11,26.06,57.98,26.02,57.86Z" style="fill:#ffe0d2"/><path d="M31.02,62.89a5.4,5.4,0,0,1-3.66-2.38c-.13-.17-.24-.36-.36-.53a9.928,9.928,0,0,1-.65-1.25c-.07-.16-.13-.33-.19-.48l-.244,1.258A7.107,7.107,0,0,0,31.48,62.98c-.08-.02-.18-.03-.26-.05A.787.787,0,0,1,31.02,62.89Z" style="fill:#ffd5c0"/><path d="M45.235,28.566V38.92A12.082,12.082,0,0,1,38.2,49.827,12.593,12.593,0,0,1,32.882,51H32V16.487h.882A12.26,12.26,0,0,1,45.174,27.35,11.038,11.038,0,0,1,45.235,28.566Z" style="fill:#f9cebb"/><path d="M32,16.487V51h-.882a12.583,12.583,0,0,1-5.312-1.173A12.056,12.056,0,0,1,18.765,38.92V28.566c0-.095,0-.2.009-.293A12.222,12.222,0,0,1,31.118,16.487Z" style="fill:#ffd5c0"/><path d="M32,16.487v.034A11.92,11.92,0,0,0,21.078,27.945c-.5.1-1,.207-1.482.293a2.194,2.194,0,0,1-.219.035A11.925,11.925,0,0,1,31.158,16.487Z" style="fill:#ffe0d2"/><path d="M32,50.97V51H29a9.992,9.992,0,0,1-9.99-9.69C19,41.21,19,41.1,19,41V29.96c.5-.08,1.01-.18,1.53-.29v9.25a12.071,12.071,0,0,0,7.04,10.91A12.649,12.649,0,0,0,32,50.97Z" style="fill:#ffe0d2"/><path d="M39.848,20.4A11.653,11.653,0,0,0,32,16.521v-.034h.842A11.9,11.9,0,0,1,44.564,27.341c-.059-.043-.1-.086-.16-.129a10.5,10.5,0,0,1-1.937-2.045c-.008,0-.008-.009-.008-.009A12.06,12.06,0,0,0,39.848,20.4Z" style="fill:#f2c8b6"/><path d="M45,30V41c0,.1,0,.21-.01.31A9.992,9.992,0,0,1,35,51H32v-.03a12.649,12.649,0,0,0,4.43-1.14,12.071,12.071,0,0,0,7.04-10.91V28.57c0-.1,0-.2-.01-.3-.01-.27-.02-.56-.05-.83a10.292,10.292,0,0,0,1.53,1.45A10.047,10.047,0,0,1,45,30Z" style="fill:#f2c8b6"/><path d="M21.078,27.945c-.009.1-.017.216-.017.328-.008.095-.008.2-.008.293v1.105c-.5.112-.986.207-1.457.293-.076.017-.152.026-.228.043V28.566c0-.095,0-.2.009-.293a2.194,2.194,0,0,0,.219-.035C20.076,28.152,20.573,28.049,21.078,27.945Z" style="fill:#f4cfc1"/><path d="M32,24.5v1.726c-1.253.509-2.585,1.01-4,1.475a63.172,63.172,0,0,1-7.474,1.968V28.566c0-.095,0-.2.009-.293,0-.112.009-.224.018-.328A62.863,62.863,0,0,0,28,25.978C29.415,25.512,30.747,25.011,32,24.5Z" style="fill:#f2c8b6"/><path d="M45.235,28.566v.553c-.088-.061-.159-.121-.238-.182a10.969,10.969,0,0,1-1.588-1.492,11.506,11.506,0,0,0-.441-2.278A10.677,10.677,0,0,0,45,27.212c.062.043.106.086.168.129.009.069.017.147.026.224a1.612,1.612,0,0,1,.018.216c.009.164.017.328.017.492C45.235,28.368,45.235,28.471,45.235,28.566Z" style="fill:#ddb3a6"/><path d="M42.968,25.167a11.506,11.506,0,0,1,.441,2.278A7.081,7.081,0,0,1,42,25.115s-.071-.2-1-3.451a60.311,60.311,0,0,1-9,4.564V24.5a59.718,59.718,0,0,0,8.224-4.1c.264-.155.529-.311.776-.466.318,1.113.538,1.872.688,2.381.283.984.309,1.07.309,1.07a6.511,6.511,0,0,0,.962,1.769A.009.009,0,0,0,42.968,25.167Z" style="fill:#eabdad"/><path d="M44.573,27.35a1.808,1.808,0,0,1,.016.215c-.008-.077-.016-.155-.025-.224Z" style="fill:#eabdad"/><path d="M19.368,34.018v6.039h-.842a2.277,2.277,0,0,1-.842-.155A2.557,2.557,0,0,1,16,37.469V34.88a.855.855,0,0,1,.842-.862Z" style="fill:#ffe0d2"/><path d="M19.368,34.018v6.039a2.277,2.277,0,0,1-.842-.155,2.557,2.557,0,0,1-1.684-2.433V34.88a.855.855,0,0,1,.842-.862Z" style="fill:#ffd5c0"/><path d="M19.368,39.2a1.437,1.437,0,0,1-.537-.1,1.711,1.711,0,0,1-1.147-1.628V34.88h1.684Z" style="fill:#f9c9b4"/><path d="M44.632,34.018v6.039h.842a2.277,2.277,0,0,0,.842-.155A2.557,2.557,0,0,0,48,37.469V34.88a.855.855,0,0,0-.842-.862Z" style="fill:#ffd5c0"/><path d="M44.632,34.018v6.039a2.277,2.277,0,0,0,.842-.155,2.557,2.557,0,0,0,1.684-2.433V34.88a.855.855,0,0,0-.842-.862Z" style="fill:#f9cebb"/><path d="M44.632,39.2a1.437,1.437,0,0,0,.537-.1,1.711,1.711,0,0,0,1.147-1.628V34.88H44.632Z" style="fill:#f4b89a"/><path d="M34.3,41.607,33.575,37.2H31.688l-.724,4.412A1.117,1.117,0,0,0,31.891,43h1.482A1.117,1.117,0,0,0,34.3,41.607Z" style="fill:#eabdad"/><path d="M32,37.2V43h-.741a1.117,1.117,0,0,1-.926-1.393l.724-4.412Z" style="fill:#f4b89a"/><path d="M32.741,43H32V37.2h.943l.724,4.412A1.117,1.117,0,0,1,32.741,43Z" style="fill:#efb297"/><path d="M31.789,43h-.53a1.117,1.117,0,0,1-.926-1.393l.724-4.412h.53l-.724,4.412A1.117,1.117,0,0,0,31.789,43Z" style="fill:#f7c4ad"/><path d="M32.208,43h.531a1.117,1.117,0,0,0,.926-1.393L32.941,37.2h-.53l.724,4.412A1.117,1.117,0,0,1,32.208,43Z" style="fill:#efae8e"/><path d="M32,42.516V43h-.211A.9.9,0,0,1,31,42.468a.784.784,0,0,0,.261.048Z" style="fill:#efb297"/><path d="M31.789,43h-.53a1.117,1.117,0,0,1-.926-1.393,1.132,1.132,0,0,0,.665.861A.9.9,0,0,0,31.789,43Z" style="fill:#f4b89a"/><path d="M32.741,43h-.53A.9.9,0,0,0,33,42.468a1.13,1.13,0,0,0,.665-.861A1.117,1.117,0,0,1,32.741,43Z" style="fill:#eaa688"/><path d="M33,42.468a.9.9,0,0,1-.791.532H32v-.484h.741A.784.784,0,0,0,33,42.468Z" style="fill:#efae8e"/><path d="M21.078,27.945c-.009.1-.017.216-.017.328-.008.095-.008.2-.008.293v-.612A.028.028,0,0,1,21.078,27.945Z" style="fill:#f4cfc1"/><rect height="0.863" style="fill:#565556" width="1.765" x="43.471" y="31.155"/><path d="M45.235,28.566v.553c-.088-.061-.159-.121-.238-.182a10.911,10.911,0,0,1-1.526-1.423V25.788A11.572,11.572,0,0,0,45,27.212c.062.043.106.086.168.129.009.069.017.147.026.224a1.612,1.612,0,0,1,.018.216c.009.164.017.328.017.492C45.235,28.368,45.235,28.471,45.235,28.566Z" style="fill:#484749"/><path d="M45.235,29.119v1.613H43.471V27.514A10.911,10.911,0,0,0,45,28.937C45.076,29,45.147,29.058,45.235,29.119Z" style="fill:#565556"/><rect height="0.863" style="fill:#666" width="1.765" x="18.765" y="31.155"/><path d="M19,29.964c.494-.086,1.006-.181,1.526-.293v1.061H18.765v-.725C18.844,29.99,18.924,29.981,19,29.964Z" style="fill:#666"/><path d="M20.529,27.954v1.717c-.52.112-1.032.207-1.526.293-.079.017-.159.026-.238.043V28.566c0-.095,0-.2.009-.293.07-.009.15-.017.229-.035C19.5,28.152,20.009,28.049,20.529,27.954Z" style="fill:#565556"/><path d="M32,13.035V24.5c-1.253.509-2.585,1.01-4,1.476a64.229,64.229,0,0,1-9,2.26c-.7.13-1.359.233-2,.328V25.978C17,18.833,23.724,13.035,32,13.035Z" style="fill:#484749"/><path d="M32,13.035v.1c-7.447.751-13.235,6.221-13.235,12.848v2.3c-.609.112-1.191.2-1.765.284V25.978C17,18.833,23.724,13.035,32,13.035Z" style="fill:#565556"/><path d="M47,25.978v2.588a17.481,17.481,0,0,1-1.765-1.173c-.088-.061-.159-.121-.238-.181a8.549,8.549,0,0,1-3-3.823s-.071-.2-1-3.451A60.311,60.311,0,0,1,32,24.5V13.035A16.121,16.121,0,0,1,43.1,17.28c.318.311.627.63.918.958a13.012,13.012,0,0,1,.811,1.036,12.842,12.842,0,0,1,.689,1.095c.106.19.211.38.3.57a11.372,11.372,0,0,1,1.006,3.071A11.184,11.184,0,0,1,47,25.978Z" style="fill:#414043"/><path d="M47,25.978v2.588a17.481,17.481,0,0,1-1.765-1.173V25.978c0-6.627-5.788-12.1-13.235-12.848v-.1A16.121,16.121,0,0,1,43.1,17.28a11.976,11.976,0,0,1,.918.958,10.274,10.274,0,0,1,.811,1.036,10.93,10.93,0,0,1,.689,1.095c.106.19.211.38.3.57a11.372,11.372,0,0,1,1.006,3.071A11.184,11.184,0,0,1,47,25.978Z" style="fill:#3d3d3d"/><path d="M31.5,62.98c.17.01.33.02.5.02H11q7-3,14-6a7.1,7.1,0,0,0,6.48,5.98Z" style="fill:#febd73"/><path d="M53,63H32c.17,0,.33-.01.5-.02h.02A7.1,7.1,0,0,0,39,57Q46.005,60,53,63Z" style="fill:#fab06b"/><path d="M24,34.5a.5.5,0,0,1-.354-.854l.815-.814A5.472,5.472,0,0,1,30.09,31.5a.5.5,0,1,1-.317.949,4.465,4.465,0,0,0-4.605,1.087l-.814.815A.5.5,0,0,1,24,34.5Z" style="fill:#484749"/><path d="M28,36a.99.99,0,0,1-1-1,1,1,0,0,1,1.71-.71A1.029,1.029,0,0,1,29,35a.99.99,0,0,1-1,1Z" style="fill:#484749"/><path d="M40,34.5a.5.5,0,0,1-.354-.146l-.814-.815a4.466,4.466,0,0,0-4.605-1.087.5.5,0,0,1-.317-.949,5.473,5.473,0,0,1,5.629,1.329l.815.814A.5.5,0,0,1,40,34.5Z" style="fill:#414043"/><path d="M36,36a.99.99,0,0,1-1-1,1.029,1.029,0,0,1,.29-.71A1,1,0,0,1,37,35a.99.99,0,0,1-1,1Z" style="fill:#414043"/><path d="M36.235,47.559A9.035,9.035,0,0,0,32,46.5h0v1h0a8.029,8.029,0,0,1,3.765.941.5.5,0,0,0,.47-.882Z" style="fill:#414043"/><path d="M27.765,47.559a.5.5,0,1,0,.47.882A8.046,8.046,0,0,1,32,47.5v-1A9.043,9.043,0,0,0,27.765,47.559Z" style="fill:#484749"/><path d="M39,57a18.419,18.419,0,0,1-1-6c0-.16,0-.31.01-.46" style="fill:none;stroke:#383844;stroke-linecap:round;stroke-linejoin:round;stroke-width:2px"/><path d="M25.99,50.54c.01.16.01.32.01.46a18.56,18.56,0,0,1-1,6" style="fill:none;stroke:#383844;stroke-linecap:round;stroke-linejoin:round;stroke-width:2px"/><path d="M19,30.62c-.69.15-1.36.27-2,.38V28a15,15,0,0,1,30,0v3a16.816,16.816,0,0,1-2-1.57A9.867,9.867,0,0,1,42,25s-.07-.23-1-4a57.725,57.725,0,0,1-13,7A57.011,57.011,0,0,1,19,30.62Z" style="fill:none;stroke:#383844;stroke-linecap:round;stroke-linejoin:round;stroke-width:2px"/><path d="M25,57a7.083,7.083,0,0,0,14,0l14,6" style="fill:none;stroke:#383844;stroke-linecap:round;stroke-linejoin:round;stroke-width:2px"/><path d="M11,63l10-4.286" style="fill:none;stroke:#383844;stroke-linecap:round;stroke-linejoin:round;stroke-width:2px"/><line style="fill:none;stroke:#383844;stroke-linecap:round;stroke-linejoin:round;stroke-width:2px" x1="41.31" x2="41.31" y1="22.25" y2="22.24"/><path d="M44.98,29.41v.01c.01.19.02.38.02.58V41A9.986,9.986,0,0,1,35,51H29A9.986,9.986,0,0,1,19,41V30.62" style="fill:none;stroke:#383844;stroke-linecap:round;stroke-linejoin:round;stroke-width:2px"/><path d="M31,38l-.761,3.8A1,1,0,0,0,31.22,43h1.56a1,1,0,0,0,.981-1.2L33,38" style="fill:none;stroke:#383844;stroke-linecap:round;stroke-linejoin:round;stroke-width:2px"/><path d="M30,32l-.068-.023a5,5,0,0,0-5.117,1.208L24,34" style="fill:none;stroke:#383844;stroke-linecap:round;stroke-linejoin:round;stroke-width:2px"/><line style="fill:none;stroke:#383844;stroke-linecap:round;stroke-linejoin:round;stroke-width:2px" x1="28" x2="28" y1="35" y2="35"/><path d="M34,32l.068-.023a5,5,0,0,1,5.117,1.208L40,34" style="fill:none;stroke:#383844;stroke-linecap:round;stroke-linejoin:round;stroke-width:2px"/><line style="fill:none;stroke:#383844;stroke-linecap:round;stroke-linejoin:round;stroke-width:2px" x1="36" x2="36" y1="35" y2="35"/><path d="M28,48a8.5,8.5,0,0,1,8,0" style="fill:none;stroke:#383844;stroke-linecap:round;stroke-linejoin:round;stroke-width:2px"/><path d="M47,34h1a0,0,0,0,1,0,0v6a0,0,0,0,1,0,0H46a1,1,0,0,1-1-1V36A2,2,0,0,1,47,34Z" style="fill:none;stroke:#383844;stroke-linecap:round;stroke-linejoin:round;stroke-width:2px" transform="translate(93 74) rotate(-180)"/><path d="M17,34h2a0,0,0,0,1,0,0v6a0,0,0,0,1,0,0H18a2,2,0,0,1-2-2V35A1,1,0,0,1,17,34Z" style="fill:none;stroke:#383844;stroke-linecap:round;stroke-linejoin:round;stroke-width:2px"/><polyline points="57 63 57 21 63 21 32 1 1 21 7 21 7 63" style="fill:none;stroke:#383844;stroke-linecap:round;stroke-linejoin:round;stroke-width:2px"/></g></svg>